# xmcd CD database file generated by MAGIX_Freedb v1.00pl0
# 
# Track frame offsets:
#      150
#      14159
#      25100
#      41542
#      54892
#      69806
#      87616
#      99272
#      113275
#      132321
#      144521
#      158498
#      177460
#      189866
# 
# Disc length: 2719 seconds
# 
# Revision: 1 
# Processed by: cddbd v1.5.2PL0 Copyright (c) Steve Scherf et al.
# Submitted via: MAGIX_Freedb v1.00pl0
# 
DISCID=a80a9d0e
DTITLE=Norah Jones - Come away with Me
DYEAR=2003
DGENRE=Blues
TTITLE0=Norah Jones - Don't know why
TTITLE1=Seven Days
TTITLE2=Cold cold heart
TTITLE3=Feelin the same way
TTITLE4=Come away with me
TTITLE5=Shoot the moon
TTITLE6=Turn me on
TTITLE7=Lonestar
TTITLE8=I've got to see you again
TTITLE9=If I were a painter
TTITLE10=One flight down
TTITLE11=Nightingale
TTITLE12=The long day is over
TTITLE13=The nearness of you
EXTD=
EXTT0=
EXTT1=
EXTT2=
EXTT3=
EXTT4=
EXTT5=
EXTT6=
EXTT7=
EXTT8=
EXTT9=
EXTT10=
EXTT11=
EXTT12=
EXTT13=
PLAYORDER=
